<svg width="465" height="465" viewBox="0 0 465 465" fill="none" xmlns="http://www.w3.org/2000/svg">
<path d="M369.228 0.000268573L94.4643 0.644962C80.122 0.678145 66.5378 3.92058 54.3655 9.65645L229.709 224.771C231.993 227.662 236.584 225.245 235.49 221.727L211.524 144.658C209.511 138.188 211.245 131.139 216.021 126.337L263.165 78.9468C270.282 71.7935 281.848 71.7651 288.998 78.8852L302.748 92.5754C376.634 166.151 404.584 274.161 375.663 374.363C373.928 380.365 369.252 385.067 363.263 386.831C263.241 416.231 155.16 388.774 81.2733 315.199L67.5233 301.508C60.3735 294.388 60.345 282.817 67.4617 275.664L114.606 228.274C119.382 223.472 126.423 221.708 132.9 223.69L210.041 247.307C213.562 248.383 215.959 243.78 213.06 241.509L2.9758 71.7319C1.01895 79.3592 -0.0186974 87.3563 0.000255066 95.5951L0.644641 370.491C0.767832 422.81 43.2593 465.123 95.5493 465L465 464.137L464.138 94.5095C464.014 42.1898 421.523 -0.122982 369.233 0.000268573H369.228Z" fill="#4CC722"/>
</svg>
