<svg width="203" height="33" viewBox="0 0 203 33" fill="none" xmlns="http://www.w3.org/2000/svg">
<path d="M41.5 29.8333C48.8638 29.8333 54.8333 23.8638 54.8333 16.5C54.8333 9.13616 48.8638 3.16663 41.5 3.16663C34.1362 3.16663 28.1666 9.13616 28.1666 16.5C28.1666 23.8638 34.1362 29.8333 41.5 29.8333Z" stroke="white" stroke-width="2" stroke-linecap="round" stroke-linejoin="round"/>
<path d="M44.58 11.1666L52.2333 24.42" stroke="white" stroke-width="2" stroke-linecap="round" stroke-linejoin="round"/>
<path d="M38.42 11.1666H53.7267" stroke="white" stroke-width="2" stroke-linecap="round" stroke-linejoin="round"/>
<path d="M35.34 16.5L42.9933 3.2467" stroke="white" stroke-width="2" stroke-linecap="round" stroke-linejoin="round"/>
<path d="M38.4201 21.8333L30.7667 8.57996" stroke="white" stroke-width="2" stroke-linecap="round" stroke-linejoin="round"/>
<path d="M44.58 21.8334H29.2733" stroke="white" stroke-width="2" stroke-linecap="round" stroke-linejoin="round"/>
<path d="M47.66 16.5L40.0067 29.7533" stroke="white" stroke-width="2" stroke-linecap="round" stroke-linejoin="round"/>
<path d="M79.3849 13.8622H76.7287C76.6529 13.4266 76.5133 13.0407 76.3097 12.7045C76.1061 12.3636 75.8527 12.0748 75.5497 11.8381C75.2467 11.6013 74.901 11.4238 74.5128 11.3054C74.1293 11.1823 73.715 11.1207 73.2699 11.1207C72.4792 11.1207 71.7784 11.3196 71.1676 11.7173C70.5568 12.1103 70.0786 12.688 69.733 13.4503C69.3873 14.2079 69.2145 15.1335 69.2145 16.2273C69.2145 17.34 69.3873 18.2775 69.733 19.0398C70.0833 19.7973 70.5616 20.3703 71.1676 20.7585C71.7784 21.142 72.4768 21.3338 73.2628 21.3338C73.6984 21.3338 74.1056 21.277 74.4844 21.1634C74.8679 21.045 75.2112 20.8722 75.5142 20.6449C75.822 20.4176 76.08 20.1383 76.2884 19.8068C76.5014 19.4754 76.6482 19.0966 76.7287 18.6705L79.3849 18.6847C79.2855 19.3759 79.0701 20.0246 78.7386 20.6307C78.4119 21.2367 77.9834 21.7718 77.4531 22.2358C76.9228 22.6951 76.3026 23.0549 75.5923 23.3153C74.8821 23.571 74.0938 23.6989 73.2273 23.6989C71.9489 23.6989 70.8078 23.4029 69.804 22.8111C68.8002 22.2192 68.0095 21.3646 67.4318 20.2472C66.8542 19.1297 66.5653 17.7898 66.5653 16.2273C66.5653 14.66 66.8565 13.3201 67.4389 12.2074C68.0213 11.09 68.8144 10.2353 69.8182 9.64347C70.822 9.05161 71.9583 8.75568 73.2273 8.75568C74.0369 8.75568 74.7898 8.86932 75.4858 9.09659C76.1818 9.32386 76.8021 9.65767 77.3466 10.098C77.8911 10.5336 78.3385 11.0687 78.6889 11.7031C79.044 12.3329 79.276 13.0526 79.3849 13.8622ZM84.1553 17.108V23.5H81.5843V8.95455H84.0985V14.4446H84.2263C84.482 13.8291 84.8774 13.3437 85.4124 12.9886C85.9522 12.6288 86.6388 12.4489 87.4721 12.4489C88.2297 12.4489 88.8902 12.6075 89.4536 12.9247C90.0171 13.242 90.4527 13.706 90.7604 14.3168C91.0729 14.9276 91.2292 15.6733 91.2292 16.554V23.5H88.6582V16.9517C88.6582 16.2178 88.4688 15.6473 88.09 15.2401C87.7159 14.8281 87.1904 14.6222 86.5133 14.6222C86.0587 14.6222 85.6515 14.7216 85.2917 14.9205C84.9366 15.1146 84.6572 15.3963 84.4536 15.7656C84.2548 16.1349 84.1553 16.5824 84.1553 17.108ZM96.8891 23.7202C96.1978 23.7202 95.5752 23.5971 95.0212 23.3509C94.472 23.0999 94.0364 22.7306 93.7144 22.2429C93.3972 21.7552 93.2386 21.1539 93.2386 20.4389C93.2386 19.8234 93.3522 19.3144 93.5795 18.9119C93.8067 18.5095 94.1169 18.1875 94.5099 17.946C94.9029 17.7045 95.3456 17.5223 95.838 17.3991C96.3352 17.2713 96.8489 17.179 97.3792 17.1222C98.0184 17.0559 98.5369 16.9967 98.9346 16.9446C99.3323 16.8878 99.6211 16.8026 99.8011 16.6889C99.9857 16.5705 100.078 16.3883 100.078 16.142V16.0994C100.078 15.5644 99.9194 15.1501 99.6022 14.8565C99.285 14.563 98.8281 14.4162 98.2315 14.4162C97.6017 14.4162 97.1022 14.5535 96.7329 14.8281C96.3683 15.1027 96.1221 15.4271 95.9942 15.8011L93.5937 15.4602C93.7831 14.7973 94.0956 14.2434 94.5312 13.7983C94.9668 13.3485 95.4995 13.0123 96.1292 12.7898C96.7589 12.5625 97.4549 12.4489 98.2173 12.4489C98.7428 12.4489 99.266 12.5104 99.7869 12.6335C100.308 12.7566 100.784 12.9602 101.214 13.2443C101.645 13.5237 101.991 13.9048 102.251 14.3878C102.517 14.8707 102.649 15.4744 102.649 16.1989V23.5H100.177V22.0014H100.092C99.936 22.3045 99.7158 22.5885 99.4317 22.8537C99.1524 23.1141 98.7996 23.3248 98.3735 23.4858C97.9521 23.642 97.4573 23.7202 96.8891 23.7202ZM97.5567 21.831C98.0728 21.831 98.5203 21.7292 98.8991 21.5256C99.2779 21.3172 99.5691 21.0426 99.7727 20.7017C99.981 20.3608 100.085 19.9891 100.085 19.5866V18.3011C100.005 18.3674 99.8674 18.429 99.6732 18.4858C99.4838 18.5426 99.2708 18.5923 99.034 18.6349C98.7973 18.6776 98.5629 18.7154 98.3309 18.7486C98.0989 18.7817 97.8977 18.8101 97.7272 18.8338C97.3437 18.8859 97.0004 18.9711 96.6974 19.0895C96.3943 19.2079 96.1552 19.3736 95.98 19.5866C95.8049 19.795 95.7173 20.0649 95.7173 20.3963C95.7173 20.8698 95.8901 21.2273 96.2357 21.4688C96.5814 21.7102 97.0217 21.831 97.5567 21.831ZM110.582 12.5909V14.5795H104.31V12.5909H110.582ZM105.859 9.97727H108.43V20.2188C108.43 20.5644 108.482 20.8295 108.586 21.0142C108.695 21.1941 108.837 21.3172 109.012 21.3835C109.187 21.4498 109.381 21.483 109.595 21.483C109.756 21.483 109.902 21.4711 110.035 21.4474C110.172 21.4238 110.276 21.4025 110.347 21.3835L110.781 23.3935C110.643 23.4408 110.447 23.4929 110.191 23.5497C109.94 23.6065 109.632 23.6397 109.268 23.6491C108.624 23.6681 108.044 23.571 107.528 23.358C107.012 23.1402 106.602 22.804 106.299 22.3494C106.001 21.8949 105.854 21.3267 105.859 20.6449V9.97727ZM121.098 15.4744L118.754 15.7301C118.688 15.4934 118.572 15.2708 118.406 15.0625C118.245 14.8542 118.027 14.6861 117.753 14.5582C117.478 14.4304 117.142 14.3665 116.744 14.3665C116.209 14.3665 115.759 14.4825 115.395 14.7145C115.035 14.9465 114.857 15.2472 114.862 15.6165C114.857 15.9337 114.973 16.1918 115.21 16.3906C115.452 16.5895 115.849 16.7528 116.403 16.8807L118.264 17.2784C119.296 17.5009 120.063 17.8537 120.565 18.3366C121.072 18.8196 121.328 19.4517 121.332 20.233C121.328 20.9195 121.126 21.5256 120.729 22.0511C120.336 22.572 119.789 22.9792 119.088 23.2727C118.387 23.5663 117.582 23.7131 116.673 23.7131C115.338 23.7131 114.263 23.4337 113.449 22.875C112.634 22.3116 112.149 21.5279 111.993 20.5241L114.5 20.2827C114.613 20.7751 114.855 21.1468 115.224 21.3977C115.594 21.6487 116.074 21.7741 116.666 21.7741C117.277 21.7741 117.767 21.6487 118.136 21.3977C118.51 21.1468 118.697 20.8366 118.697 20.4673C118.697 20.1548 118.577 19.8968 118.335 19.6932C118.098 19.4896 117.729 19.3333 117.227 19.2244L115.366 18.8338C114.32 18.616 113.546 18.2491 113.044 17.733C112.542 17.2121 112.293 16.554 112.298 15.7585C112.293 15.0862 112.476 14.5038 112.845 14.0114C113.219 13.5142 113.738 13.1307 114.4 12.8608C115.068 12.5862 115.837 12.4489 116.709 12.4489C117.987 12.4489 118.993 12.7211 119.727 13.2656C120.466 13.8101 120.923 14.5464 121.098 15.4744ZM126.491 23.7202C125.8 23.7202 125.178 23.5971 124.624 23.3509C124.074 23.0999 123.639 22.7306 123.317 22.2429C123 21.7552 122.841 21.1539 122.841 20.4389C122.841 19.8234 122.955 19.3144 123.182 18.9119C123.409 18.5095 123.719 18.1875 124.112 17.946C124.505 17.7045 124.948 17.5223 125.44 17.3991C125.938 17.2713 126.451 17.179 126.982 17.1222C127.621 17.0559 128.139 16.9967 128.537 16.9446C128.935 16.8878 129.223 16.8026 129.403 16.6889C129.588 16.5705 129.68 16.3883 129.68 16.142V16.0994C129.68 15.5644 129.522 15.1501 129.205 14.8565C128.887 14.563 128.43 14.4162 127.834 14.4162C127.204 14.4162 126.705 14.5535 126.335 14.8281C125.971 15.1027 125.724 15.4271 125.597 15.8011L123.196 15.4602C123.385 14.7973 123.698 14.2434 124.134 13.7983C124.569 13.3485 125.102 13.0123 125.732 12.7898C126.361 12.5625 127.057 12.4489 127.82 12.4489C128.345 12.4489 128.868 12.5104 129.389 12.6335C129.91 12.7566 130.386 12.9602 130.817 13.2443C131.248 13.5237 131.593 13.9048 131.854 14.3878C132.119 14.8707 132.251 15.4744 132.251 16.1989V23.5H129.78V22.0014H129.695C129.538 22.3045 129.318 22.5885 129.034 22.8537C128.755 23.1141 128.402 23.3248 127.976 23.4858C127.554 23.642 127.06 23.7202 126.491 23.7202ZM127.159 21.831C127.675 21.831 128.123 21.7292 128.501 21.5256C128.88 21.3172 129.171 21.0426 129.375 20.7017C129.583 20.3608 129.688 19.9891 129.688 19.5866V18.3011C129.607 18.3674 129.47 18.429 129.276 18.4858C129.086 18.5426 128.873 18.5923 128.636 18.6349C128.4 18.6776 128.165 18.7154 127.933 18.7486C127.701 18.7817 127.5 18.8101 127.33 18.8338C126.946 18.8859 126.603 18.9711 126.3 19.0895C125.997 19.2079 125.758 19.3736 125.582 19.5866C125.407 19.795 125.32 20.0649 125.32 20.3963C125.32 20.8698 125.492 21.2273 125.838 21.4688C126.184 21.7102 126.624 21.831 127.159 21.831ZM134.737 27.5909V12.5909H137.265V14.3949H137.414C137.547 14.1297 137.734 13.848 137.975 13.5497C138.217 13.2467 138.543 12.9886 138.955 12.7756C139.367 12.5578 139.893 12.4489 140.532 12.4489C141.375 12.4489 142.135 12.6643 142.812 13.0952C143.494 13.5213 144.034 14.1534 144.431 14.9915C144.834 15.8248 145.035 16.8475 145.035 18.0597C145.035 19.2576 144.838 20.2756 144.445 21.1136C144.052 21.9517 143.517 22.5909 142.84 23.0312C142.163 23.4716 141.396 23.6918 140.539 23.6918C139.914 23.6918 139.396 23.5876 138.984 23.3793C138.572 23.1709 138.24 22.92 137.989 22.6264C137.743 22.3281 137.552 22.0464 137.414 21.7812H137.308V27.5909H134.737ZM137.258 18.0455C137.258 18.7509 137.357 19.3688 137.556 19.8991C137.76 20.4295 138.051 20.8437 138.43 21.142C138.813 21.4356 139.277 21.5824 139.822 21.5824C140.39 21.5824 140.866 21.4309 141.249 21.1278C141.633 20.8201 141.922 20.401 142.116 19.8707C142.315 19.3357 142.414 18.7273 142.414 18.0455C142.414 17.3684 142.317 16.767 142.123 16.2415C141.929 15.7159 141.64 15.304 141.257 15.0057C140.873 14.7074 140.395 14.5582 139.822 14.5582C139.273 14.5582 138.806 14.7027 138.423 14.9915C138.039 15.2803 137.748 15.6851 137.549 16.206C137.355 16.7268 137.258 17.34 137.258 18.0455ZM147.137 27.5909V12.5909H149.665V14.3949H149.814C149.947 14.1297 150.134 13.848 150.375 13.5497C150.617 13.2467 150.943 12.9886 151.355 12.7756C151.767 12.5578 152.293 12.4489 152.932 12.4489C153.775 12.4489 154.535 12.6643 155.212 13.0952C155.894 13.5213 156.434 14.1534 156.831 14.9915C157.234 15.8248 157.435 16.8475 157.435 18.0597C157.435 19.2576 157.238 20.2756 156.845 21.1136C156.452 21.9517 155.917 22.5909 155.24 23.0312C154.563 23.4716 153.796 23.6918 152.939 23.6918C152.314 23.6918 151.796 23.5876 151.384 23.3793C150.972 23.1709 150.64 22.92 150.389 22.6264C150.143 22.3281 149.952 22.0464 149.814 21.7812H149.708V27.5909H147.137ZM149.658 18.0455C149.658 18.7509 149.757 19.3688 149.956 19.8991C150.16 20.4295 150.451 20.8437 150.83 21.142C151.213 21.4356 151.677 21.5824 152.222 21.5824C152.79 21.5824 153.266 21.4309 153.649 21.1278C154.033 20.8201 154.322 20.401 154.516 19.8707C154.715 19.3357 154.814 18.7273 154.814 18.0455C154.814 17.3684 154.717 16.767 154.523 16.2415C154.329 15.7159 154.04 15.304 153.657 15.0057C153.273 14.7074 152.795 14.5582 152.222 14.5582C151.673 14.5582 151.206 14.7027 150.823 14.9915C150.439 15.2803 150.148 15.6851 149.949 16.206C149.755 16.7268 149.658 17.34 149.658 18.0455ZM160.835 23.5H158.022L163.143 8.95455H166.396L171.524 23.5H168.711L164.826 11.9375H164.712L160.835 23.5ZM160.927 17.7969H168.597V19.9134H160.927V17.7969ZM175.974 8.95455V23.5H173.339V8.95455H175.974Z" fill="white"/>
</svg>
